<?xml version="1.0" encoding="UTF-8" standalone="no"?>
<!DOCTYPE svg PUBLIC "-//W3C//DTD SVG 1.1//EN"
 "http://www.w3.org/Graphics/SVG/1.1/DTD/svg11.dtd">
<!-- Generated by graphviz version 2.43.0 (0)
 -->
<!-- Title: folder2 Pages: 1 -->
<svg width="596pt" height="263pt"
 viewBox="0.00 0.00 596.38 262.69" xmlns="http://www.w3.org/2000/svg" xmlns:xlink="http://www.w3.org/1999/xlink">
<g id="graph0" class="graph" transform="scale(1 1) rotate(0) translate(4 258.69)">
<title>folder2</title>
<polygon fill="white" stroke="transparent" points="-4,4 -4,-258.69 592.38,-258.69 592.38,4 -4,4"/>
<!-- input -->
<g id="node1" class="node">
<title>input</title>
<ellipse fill="none" stroke="black" cx="35.1" cy="-35.1" rx="35.19" ry="35.19"/>
<text text-anchor="middle" x="35.1" y="-31.4" font-family="Times,serif" font-size="14.00">input</text>
</g>
<!-- kons -->
<g id="node5" class="node">
<title>kons</title>
<polygon fill="none" stroke="black" points="160.19,-80.1 106.19,-80.1 106.19,-44.1 160.19,-44.1 160.19,-80.1"/>
<text text-anchor="middle" x="133.19" y="-58.4" font-family="Times,serif" font-size="14.00">kons</text>
</g>
<!-- input&#45;&gt;kons -->
<g id="edge1" class="edge">
<title>input&#45;&gt;kons</title>
<path fill="none" stroke="black" d="M69.17,-44.39C77.93,-46.85 87.42,-49.52 96.32,-52.02"/>
<polygon fill="black" stroke="black" points="95.47,-55.41 106.04,-54.75 97.36,-48.67 95.47,-55.41"/>
</g>
<!-- default&#45;acc -->
<g id="node7" class="node">
<title>default&#45;acc</title>
<polygon fill="none" stroke="black" points="588.38,-64.1 493.38,-64.1 493.38,-28.1 588.38,-28.1 588.38,-64.1"/>
<text text-anchor="middle" x="540.88" y="-42.4" font-family="Times,serif" font-size="14.00">default&#45;acc</text>
</g>
<!-- input&#45;&gt;default&#45;acc -->
<g id="edge2" class="edge">
<title>input&#45;&gt;default&#45;acc</title>
<path fill="none" stroke="black" d="M69.32,-27.29C106.21,-19.31 167.61,-8.1 221.19,-8.1 221.19,-8.1 221.19,-8.1 312.19,-8.1 371.18,-8.1 437.61,-20.66 483.42,-31.34"/>
<polygon fill="black" stroke="black" points="482.63,-34.75 493.16,-33.65 484.25,-27.94 482.63,-34.75"/>
</g>
<!-- output -->
<g id="node2" class="node">
<title>output</title>
<ellipse fill="none" stroke="black" cx="415.79" cy="-213.1" rx="41.69" ry="41.69"/>
<text text-anchor="middle" x="415.79" y="-209.4" font-family="Times,serif" font-size="14.00">output</text>
</g>
<!-- acc -->
<g id="node3" class="node">
<title>acc</title>
<ellipse fill="none" stroke="black" cx="222.19" cy="-62.1" rx="26" ry="26"/>
<text text-anchor="middle" x="222.19" y="-58.4" font-family="Times,serif" font-size="14.00">acc</text>
</g>
<!-- acc&#45;&gt;kons -->
<g id="edge3" class="edge">
<title>acc&#45;&gt;kons</title>
<path fill="none" stroke="black" d="M196.89,-68.22C188.7,-68.79 179.38,-68.97 170.47,-68.76"/>
<polygon fill="black" stroke="black" points="170.43,-65.26 160.3,-68.34 170.14,-72.25 170.43,-65.26"/>
</g>
<!-- peek -->
<g id="node6" class="node">
<title>peek</title>
<polygon fill="none" stroke="black" points="338.19,-132.1 284.19,-132.1 284.19,-96.1 338.19,-96.1 338.19,-132.1"/>
<text text-anchor="middle" x="311.19" y="-110.4" font-family="Times,serif" font-size="14.00">peek</text>
</g>
<!-- acc&#45;&gt;peek -->
<g id="edge7" class="edge">
<title>acc&#45;&gt;peek</title>
<path fill="none" stroke="black" d="M245.14,-75.22C254.25,-80.66 265.05,-87.12 275.2,-93.19"/>
<polygon fill="black" stroke="black" points="273.52,-96.26 283.9,-98.38 277.11,-90.25 273.52,-96.26"/>
</g>
<!-- bound -->
<g id="node4" class="node">
<title>bound</title>
<ellipse fill="none" stroke="black" cx="415.79" cy="-114.1" rx="39.79" ry="39.79"/>
<text text-anchor="middle" x="415.79" y="-110.4" font-family="Times,serif" font-size="14.00">bound</text>
</g>
<!-- bound&#45;&gt;default&#45;acc -->
<g id="edge6" class="edge">
<title>bound&#45;&gt;default&#45;acc</title>
<path fill="none" stroke="black" d="M450.75,-95.34C465.38,-87.25 482.64,-77.72 498.05,-69.2"/>
<polygon fill="black" stroke="black" points="499.82,-72.23 506.88,-64.33 496.43,-66.1 499.82,-72.23"/>
</g>
<!-- kons&#45;&gt;acc -->
<g id="edge4" class="edge">
<title>kons&#45;&gt;acc</title>
<path fill="none" stroke="black" d="M160.3,-55.85C168.64,-55.34 178.01,-55.22 186.85,-55.48"/>
<polygon fill="black" stroke="black" points="186.73,-58.98 196.89,-55.97 187.07,-51.99 186.73,-58.98"/>
</g>
<!-- peek&#45;&gt;output -->
<g id="edge8" class="edge">
<title>peek&#45;&gt;output</title>
<path fill="none" stroke="black" d="M331.01,-132.26C344.03,-144.82 361.8,-161.97 377.63,-177.24"/>
<polygon fill="black" stroke="black" points="375.58,-180.13 385.21,-184.56 380.44,-175.09 375.58,-180.13"/>
</g>
<!-- peek&#45;&gt;bound -->
<g id="edge9" class="edge">
<title>peek&#45;&gt;bound</title>
<path fill="none" stroke="black" d="M338.34,-114.1C346.71,-114.1 356.27,-114.1 365.73,-114.1"/>
<polygon fill="black" stroke="black" points="365.89,-117.6 375.89,-114.1 365.89,-110.6 365.89,-117.6"/>
</g>
<!-- default&#45;acc&#45;&gt;acc -->
<g id="edge5" class="edge">
<title>default&#45;acc&#45;&gt;acc</title>
<path fill="none" stroke="black" d="M493.1,-48.46C429.08,-51.69 315.59,-57.43 258.32,-60.32"/>
<polygon fill="black" stroke="black" points="258.12,-56.83 248.31,-60.83 258.47,-63.82 258.12,-56.83"/>
</g>
</g>
</svg>
