<?xml version="1.0" encoding="UTF-8" standalone="no"?>
<!DOCTYPE svg PUBLIC "-//W3C//DTD SVG 1.1//EN"
 "http://www.w3.org/Graphics/SVG/1.1/DTD/svg11.dtd">
<!-- Generated by graphviz version 2.43.0 (0)
 -->
<!-- Title: somenet Pages: 1 -->
<svg width="368pt" height="98pt"
 viewBox="0.00 0.00 368.00 98.00" xmlns="http://www.w3.org/2000/svg" xmlns:xlink="http://www.w3.org/1999/xlink">
<g id="graph0" class="graph" transform="scale(1 1) rotate(0) translate(4 94)">
<title>somenet</title>
<polygon fill="white" stroke="transparent" points="-4,4 -4,-94 364,-94 364,4 -4,4"/>
<!-- 0 -->
<g id="node1" class="node">
<title>0</title>
<ellipse fill="none" stroke="black" cx="18" cy="-45" rx="18" ry="18"/>
<text text-anchor="middle" x="18" y="-41.3" font-family="Times,serif" font-size="14.00">0</text>
</g>
<!-- t1 -->
<g id="node5" class="node">
<title>t1</title>
<polygon fill="none" stroke="black" points="126,-63 72,-63 72,-27 126,-27 126,-63"/>
<text text-anchor="middle" x="99" y="-41.3" font-family="Times,serif" font-size="14.00">t1</text>
</g>
<!-- 0&#45;&gt;t1 -->
<g id="edge1" class="edge">
<title>0&#45;&gt;t1</title>
<path fill="none" stroke="black" d="M36.14,-45C43.64,-45 52.75,-45 61.64,-45"/>
<polygon fill="black" stroke="black" points="61.87,-48.5 71.87,-45 61.87,-41.5 61.87,-48.5"/>
</g>
<!-- 1 -->
<g id="node2" class="node">
<title>1</title>
<ellipse fill="none" stroke="black" cx="180" cy="-72" rx="18" ry="18"/>
<text text-anchor="middle" x="180" y="-68.3" font-family="Times,serif" font-size="14.00">1</text>
</g>
<!-- t2 -->
<g id="node6" class="node">
<title>t2</title>
<polygon fill="none" stroke="black" points="288,-63 234,-63 234,-27 288,-27 288,-63"/>
<text text-anchor="middle" x="261" y="-41.3" font-family="Times,serif" font-size="14.00">t2</text>
</g>
<!-- 1&#45;&gt;t2 -->
<g id="edge4" class="edge">
<title>1&#45;&gt;t2</title>
<path fill="none" stroke="black" d="M197.37,-66.41C205.15,-63.75 214.78,-60.45 224.14,-57.26"/>
<polygon fill="black" stroke="black" points="225.37,-60.53 233.7,-53.99 223.11,-53.91 225.37,-60.53"/>
</g>
<!-- 2 -->
<g id="node3" class="node">
<title>2</title>
<ellipse fill="none" stroke="black" cx="180" cy="-18" rx="18" ry="18"/>
<text text-anchor="middle" x="180" y="-14.3" font-family="Times,serif" font-size="14.00">2</text>
</g>
<!-- 2&#45;&gt;t2 -->
<g id="edge5" class="edge">
<title>2&#45;&gt;t2</title>
<path fill="none" stroke="black" d="M197.37,-23.59C205.15,-26.25 214.78,-29.55 224.14,-32.74"/>
<polygon fill="black" stroke="black" points="223.11,-36.09 233.7,-36.01 225.37,-29.47 223.11,-36.09"/>
</g>
<!-- 3 -->
<g id="node4" class="node">
<title>3</title>
<ellipse fill="none" stroke="black" cx="342" cy="-45" rx="18" ry="18"/>
<text text-anchor="middle" x="342" y="-41.3" font-family="Times,serif" font-size="14.00">3</text>
</g>
<!-- t1&#45;&gt;1 -->
<g id="edge2" class="edge">
<title>t1&#45;&gt;1</title>
<path fill="none" stroke="black" d="M126.31,-53.99C134.95,-56.95 144.55,-60.23 153.16,-63.17"/>
<polygon fill="black" stroke="black" points="152.11,-66.51 162.7,-66.43 154.37,-59.88 152.11,-66.51"/>
</g>
<!-- t1&#45;&gt;2 -->
<g id="edge3" class="edge">
<title>t1&#45;&gt;2</title>
<path fill="none" stroke="black" d="M126.31,-36.01C134.95,-33.05 144.55,-29.77 153.16,-26.83"/>
<polygon fill="black" stroke="black" points="154.37,-30.12 162.7,-23.57 152.11,-23.49 154.37,-30.12"/>
</g>
<!-- t2&#45;&gt;3 -->
<g id="edge6" class="edge">
<title>t2&#45;&gt;3</title>
<path fill="none" stroke="black" d="M288.31,-45C296.42,-45 305.37,-45 313.56,-45"/>
<polygon fill="black" stroke="black" points="313.75,-48.5 323.75,-45 313.75,-41.5 313.75,-48.5"/>
</g>
</g>
</svg>
