<?xml version="1.0" encoding="UTF-8" standalone="no"?>
<!DOCTYPE svg PUBLIC "-//W3C//DTD SVG 1.1//EN"
 "http://www.w3.org/Graphics/SVG/1.1/DTD/svg11.dtd">
<!-- Generated by graphviz version 2.43.0 (0)
 -->
<!-- Title: cond_routing Pages: 1 -->
<svg width="321pt" height="98pt"
 viewBox="0.00 0.00 321.20 98.00" xmlns="http://www.w3.org/2000/svg" xmlns:xlink="http://www.w3.org/1999/xlink">
<g id="graph0" class="graph" transform="scale(1 1) rotate(0) translate(4 94)">
<title>cond_routing</title>
<polygon fill="white" stroke="transparent" points="-4,4 -4,-94 317.2,-94 317.2,4 -4,4"/>
<!-- A -->
<g id="node1" class="node">
<title>A</title>
<polygon fill="none" stroke="black" points="54,-63 0,-63 0,-27 54,-27 54,-63"/>
<text text-anchor="middle" x="27" y="-41.3" font-family="Times,serif" font-size="14.00">A</text>
</g>
<!-- split -->
<g id="node5" class="node">
<title>split</title>
<ellipse fill="black" stroke="black" cx="91.8" cy="-45" rx="1.8" ry="1.8"/>
</g>
<!-- A&#45;&gt;split -->
<g id="edge1" class="edge">
<title>A&#45;&gt;split</title>
<path fill="none" stroke="black" d="M54.27,-45C63.21,-45 72.72,-45 79.8,-45"/>
<polygon fill="black" stroke="black" points="79.94,-48.5 89.94,-45 79.94,-41.5 79.94,-48.5"/>
</g>
<!-- B -->
<g id="node2" class="node">
<title>B</title>
<polygon fill="none" stroke="black" points="183.6,-90 129.6,-90 129.6,-54 183.6,-54 183.6,-90"/>
<text text-anchor="middle" x="156.6" y="-68.3" font-family="Times,serif" font-size="14.00">B</text>
</g>
<!-- join -->
<g id="node6" class="node">
<title>join</title>
<ellipse fill="black" stroke="black" cx="221.4" cy="-45" rx="1.8" ry="1.8"/>
</g>
<!-- B&#45;&gt;join -->
<g id="edge4" class="edge">
<title>B&#45;&gt;join</title>
<path fill="none" stroke="black" d="M183.87,-60.71C193.16,-56.71 203.07,-52.45 210.22,-49.38"/>
<polygon fill="black" stroke="black" points="211.73,-52.54 219.54,-45.37 208.97,-46.11 211.73,-52.54"/>
</g>
<!-- C -->
<g id="node3" class="node">
<title>C</title>
<polygon fill="none" stroke="black" points="183.6,-36 129.6,-36 129.6,0 183.6,0 183.6,-36"/>
<text text-anchor="middle" x="156.6" y="-14.3" font-family="Times,serif" font-size="14.00">C</text>
</g>
<!-- C&#45;&gt;join -->
<g id="edge5" class="edge">
<title>C&#45;&gt;join</title>
<path fill="none" stroke="black" d="M183.87,-29.29C193.16,-33.29 203.07,-37.55 210.22,-40.62"/>
<polygon fill="black" stroke="black" points="208.97,-43.89 219.54,-44.63 211.73,-37.46 208.97,-43.89"/>
</g>
<!-- D -->
<g id="node4" class="node">
<title>D</title>
<polygon fill="none" stroke="black" points="313.2,-63 259.2,-63 259.2,-27 313.2,-27 313.2,-63"/>
<text text-anchor="middle" x="286.2" y="-41.3" font-family="Times,serif" font-size="14.00">D</text>
</g>
<!-- split&#45;&gt;B -->
<g id="edge2" class="edge">
<title>split&#45;&gt;B</title>
<path fill="none" stroke="black" d="M93.89,-45.47C97.31,-46.94 108.29,-51.66 120.07,-56.72"/>
<polygon fill="black" stroke="black" points="118.98,-60.07 129.55,-60.8 121.75,-53.64 118.98,-60.07"/>
</g>
<!-- split&#45;&gt;C -->
<g id="edge3" class="edge">
<title>split&#45;&gt;C</title>
<path fill="none" stroke="black" d="M93.89,-44.53C97.31,-43.06 108.29,-38.34 120.07,-33.28"/>
<polygon fill="black" stroke="black" points="121.75,-36.36 129.55,-29.2 118.98,-29.93 121.75,-36.36"/>
</g>
<!-- join&#45;&gt;D -->
<g id="edge6" class="edge">
<title>join&#45;&gt;D</title>
<path fill="none" stroke="black" d="M223.49,-45C226.84,-45 237.46,-45 248.97,-45"/>
<polygon fill="black" stroke="black" points="249.15,-48.5 259.15,-45 249.15,-41.5 249.15,-48.5"/>
</g>
</g>
</svg>
