<?xml version="1.0" encoding="UTF-8" standalone="no"?>
<!DOCTYPE svg PUBLIC "-//W3C//DTD SVG 1.1//EN"
 "http://www.w3.org/Graphics/SVG/1.1/DTD/svg11.dtd">
<!-- Generated by graphviz version 2.43.0 (0)
 -->
<!-- Title: example_or Pages: 1 -->
<svg width="483pt" height="172pt"
 viewBox="0.00 0.00 482.69 171.79" xmlns="http://www.w3.org/2000/svg" xmlns:xlink="http://www.w3.org/1999/xlink">
<g id="graph0" class="graph" transform="scale(1 1) rotate(0) translate(4 167.79)">
<title>example_or</title>
<polygon fill="white" stroke="transparent" points="-4,4 -4,-167.79 478.69,-167.79 478.69,4 -4,4"/>
<!-- result -->
<g id="node1" class="node">
<title>result</title>
<ellipse fill="none" stroke="black" cx="128.35" cy="-125.45" rx="38.19" ry="38.19"/>
<text text-anchor="middle" x="128.35" y="-121.75" font-family="Times,serif" font-size="14.00">result</text>
</g>
<!-- handleResult -->
<g id="node5" class="node">
<title>handleResult</title>
<polygon fill="none" stroke="black" points="312.69,-133.45 202.69,-133.45 202.69,-97.45 312.69,-97.45 312.69,-133.45"/>
<text text-anchor="middle" x="257.69" y="-111.75" font-family="Times,serif" font-size="14.00">handleResult</text>
</g>
<!-- result&#45;&gt;handleResult -->
<g id="edge3" class="edge">
<title>result&#45;&gt;handleResult</title>
<path fill="none" stroke="black" d="M166.87,-122.5C174.88,-121.87 183.57,-121.19 192.27,-120.51"/>
<polygon fill="black" stroke="black" points="192.76,-123.98 202.46,-119.71 192.21,-117 192.76,-123.98"/>
</g>
<!-- error -->
<g id="node2" class="node">
<title>error</title>
<ellipse fill="none" stroke="black" cx="128.35" cy="-34.45" rx="34.39" ry="34.39"/>
<text text-anchor="middle" x="128.35" y="-30.75" font-family="Times,serif" font-size="14.00">error</text>
</g>
<!-- handleError -->
<g id="node6" class="node">
<title>handleError</title>
<polygon fill="none" stroke="black" points="309.69,-70.45 205.69,-70.45 205.69,-34.45 309.69,-34.45 309.69,-70.45"/>
<text text-anchor="middle" x="257.69" y="-48.75" font-family="Times,serif" font-size="14.00">handleError</text>
</g>
<!-- error&#45;&gt;handleError -->
<g id="edge4" class="edge">
<title>error&#45;&gt;handleError</title>
<path fill="none" stroke="black" d="M162.81,-39.18C172.74,-40.58 183.94,-42.16 195.06,-43.74"/>
<polygon fill="black" stroke="black" points="194.83,-47.24 205.22,-45.17 195.81,-40.31 194.83,-47.24"/>
</g>
<!-- f -->
<g id="node3" class="node">
<title>f</title>
<ellipse fill="none" stroke="black" cx="366.69" cy="-79.45" rx="18" ry="18"/>
<text text-anchor="middle" x="366.69" y="-75.75" font-family="Times,serif" font-size="14.00">f</text>
</g>
<!-- F -->
<g id="node7" class="node">
<title>F</title>
<polygon fill="none" stroke="black" points="474.69,-97.45 420.69,-97.45 420.69,-61.45 474.69,-61.45 474.69,-97.45"/>
<text text-anchor="middle" x="447.69" y="-75.75" font-family="Times,serif" font-size="14.00">F</text>
</g>
<!-- f&#45;&gt;F -->
<g id="edge7" class="edge">
<title>f&#45;&gt;F</title>
<path fill="none" stroke="black" d="M384.84,-79.45C392.34,-79.45 401.44,-79.45 410.34,-79.45"/>
<polygon fill="black" stroke="black" points="410.57,-82.95 420.57,-79.45 410.57,-75.95 410.57,-82.95"/>
</g>
<!-- R -->
<g id="node4" class="node">
<title>R</title>
<polygon fill="none" stroke="black" points="54,-97.45 0,-97.45 0,-61.45 54,-61.45 54,-97.45"/>
<text text-anchor="middle" x="27" y="-75.75" font-family="Times,serif" font-size="14.00">R</text>
</g>
<!-- R&#45;&gt;result -->
<g id="edge1" class="edge">
<title>R&#45;&gt;result</title>
<path fill="none" stroke="black" d="M54.1,-91.53C63.26,-95.77 73.8,-100.66 83.99,-105.37"/>
<polygon fill="black" stroke="black" points="82.65,-108.61 93.19,-109.63 85.59,-102.25 82.65,-108.61"/>
</g>
<!-- R&#45;&gt;error -->
<g id="edge2" class="edge">
<title>R&#45;&gt;error</title>
<path fill="none" stroke="black" d="M54.1,-67.62C64.25,-63.03 76.11,-57.65 87.3,-52.59"/>
<polygon fill="black" stroke="black" points="88.81,-55.74 96.48,-48.43 85.93,-49.37 88.81,-55.74"/>
</g>
<!-- handleResult&#45;&gt;f -->
<g id="edge5" class="edge">
<title>handleResult&#45;&gt;f</title>
<path fill="none" stroke="black" d="M312.51,-97.34C321.87,-94.19 331.23,-91.04 339.42,-88.29"/>
<polygon fill="black" stroke="black" points="340.73,-91.54 349.09,-85.03 338.5,-84.9 340.73,-91.54"/>
</g>
<!-- handleError&#45;&gt;f -->
<g id="edge6" class="edge">
<title>handleError&#45;&gt;f</title>
<path fill="none" stroke="black" d="M310,-65.39C320.18,-67.96 330.46,-70.56 339.37,-72.81"/>
<polygon fill="black" stroke="black" points="338.57,-76.21 349.12,-75.26 340.28,-69.42 338.57,-76.21"/>
</g>
</g>
</svg>
