<?xml version="1.0" encoding="UTF-8" standalone="no"?>
<!DOCTYPE svg PUBLIC "-//W3C//DTD SVG 1.1//EN"
 "http://www.w3.org/Graphics/SVG/1.1/DTD/svg11.dtd">
<!-- Generated by graphviz version 2.43.0 (0)
 -->
<!-- Title: example_or_em Pages: 1 -->
<svg width="667pt" height="172pt"
 viewBox="0.00 0.00 666.69 171.79" xmlns="http://www.w3.org/2000/svg" xmlns:xlink="http://www.w3.org/1999/xlink">
<g id="graph0" class="graph" transform="scale(1 1) rotate(0) translate(4 167.79)">
<title>example_or_em</title>
<polygon fill="white" stroke="transparent" points="-4,4 -4,-167.79 662.69,-167.79 662.69,4 -4,4"/>
<!-- result -->
<g id="node1" class="node">
<title>result</title>
<ellipse fill="none" stroke="black" cx="129.35" cy="-125.45" rx="38.19" ry="38.19"/>
<text text-anchor="middle" x="129.35" y="-121.75" font-family="Times,serif" font-size="14.00">result</text>
</g>
<!-- handleResult&#39; -->
<g id="node6" class="node">
<title>handleResult&#39;</title>
<polygon fill="none" stroke="black" points="318.69,-138.45 204.69,-138.45 204.69,-102.45 318.69,-102.45 318.69,-138.45"/>
<text text-anchor="middle" x="261.69" y="-116.75" font-family="Times,serif" font-size="14.00">handleResult&#39;</text>
</g>
<!-- result&#45;&gt;handleResult&#39; -->
<g id="edge3" class="edge">
<title>result&#45;&gt;handleResult&#39;</title>
<path fill="none" stroke="black" d="M167.7,-124.01C176.01,-123.7 185.06,-123.35 194.14,-123"/>
<polygon fill="black" stroke="black" points="194.52,-126.49 204.38,-122.61 194.25,-119.49 194.52,-126.49"/>
</g>
<!-- error -->
<g id="node2" class="node">
<title>error</title>
<ellipse fill="none" stroke="black" cx="129.35" cy="-34.45" rx="34.39" ry="34.39"/>
<text text-anchor="middle" x="129.35" y="-30.75" font-family="Times,serif" font-size="14.00">error</text>
</g>
<!-- handleError&#39; -->
<g id="node7" class="node">
<title>handleError&#39;</title>
<polygon fill="none" stroke="black" points="315.19,-79.45 208.19,-79.45 208.19,-43.45 315.19,-43.45 315.19,-79.45"/>
<text text-anchor="middle" x="261.69" y="-57.75" font-family="Times,serif" font-size="14.00">handleError&#39;</text>
</g>
<!-- error&#45;&gt;handleError&#39; -->
<g id="edge4" class="edge">
<title>error&#45;&gt;handleError&#39;</title>
<path fill="none" stroke="black" d="M163.24,-41.26C173.84,-43.46 185.98,-45.97 197.99,-48.46"/>
<polygon fill="black" stroke="black" points="197.53,-51.94 208.03,-50.54 198.95,-45.08 197.53,-51.94"/>
</g>
<!-- m -->
<g id="node3" class="node">
<title>m</title>
<ellipse fill="none" stroke="black" cx="375.19" cy="-87.45" rx="19.5" ry="19.5"/>
<text text-anchor="middle" x="375.19" y="-83.75" font-family="Times,serif" font-size="14.00">m</text>
</g>
<!-- M -->
<g id="node8" class="node">
<title>M</title>
<polygon fill="none" stroke="black" points="494.69,-105.45 440.69,-105.45 440.69,-69.45 494.69,-69.45 494.69,-105.45"/>
<text text-anchor="middle" x="467.69" y="-83.75" font-family="Times,serif" font-size="14.00">M</text>
</g>
<!-- m&#45;&gt;M -->
<g id="edge7" class="edge">
<title>m&#45;&gt;M</title>
<path fill="none" stroke="black" d="M394.94,-87.45C405.11,-87.45 418.04,-87.45 430.12,-87.45"/>
<polygon fill="black" stroke="black" points="430.41,-90.95 440.41,-87.45 430.41,-83.95 430.41,-90.95"/>
<text text-anchor="middle" x="417.69" y="-91.25" font-family="Times,serif" font-size="14.00">2</text>
</g>
<!-- f -->
<g id="node4" class="node">
<title>f</title>
<ellipse fill="none" stroke="black" cx="549.69" cy="-87.45" rx="18" ry="18"/>
<text text-anchor="middle" x="549.69" y="-83.75" font-family="Times,serif" font-size="14.00">f</text>
</g>
<!-- F -->
<g id="node9" class="node">
<title>F</title>
<polygon fill="none" stroke="black" points="658.69,-105.45 604.69,-105.45 604.69,-69.45 658.69,-69.45 658.69,-105.45"/>
<text text-anchor="middle" x="631.69" y="-83.75" font-family="Times,serif" font-size="14.00">F</text>
</g>
<!-- f&#45;&gt;F -->
<g id="edge9" class="edge">
<title>f&#45;&gt;F</title>
<path fill="none" stroke="black" d="M568.05,-87.45C575.79,-87.45 585.23,-87.45 594.4,-87.45"/>
<polygon fill="black" stroke="black" points="594.54,-90.95 604.54,-87.45 594.54,-83.95 594.54,-90.95"/>
</g>
<!-- R -->
<g id="node5" class="node">
<title>R</title>
<polygon fill="none" stroke="black" points="54,-97.45 0,-97.45 0,-61.45 54,-61.45 54,-97.45"/>
<text text-anchor="middle" x="27" y="-75.75" font-family="Times,serif" font-size="14.00">R</text>
</g>
<!-- R&#45;&gt;result -->
<g id="edge1" class="edge">
<title>R&#45;&gt;result</title>
<path fill="none" stroke="black" d="M54.1,-91.41C63.44,-95.69 74.23,-100.64 84.65,-105.42"/>
<polygon fill="black" stroke="black" points="83.51,-108.74 94.06,-109.73 86.42,-102.38 83.51,-108.74"/>
</g>
<!-- R&#45;&gt;error -->
<g id="edge2" class="edge">
<title>R&#45;&gt;error</title>
<path fill="none" stroke="black" d="M54.1,-67.74C64.54,-63.06 76.79,-57.57 88.3,-52.4"/>
<polygon fill="black" stroke="black" points="90.05,-55.46 97.74,-48.17 87.19,-49.07 90.05,-55.46"/>
</g>
<!-- handleResult&#39;&#45;&gt;m -->
<g id="edge5" class="edge">
<title>handleResult&#39;&#45;&gt;m</title>
<path fill="none" stroke="black" d="M318.77,-103.85C328.48,-100.97 338.19,-98.1 346.7,-95.58"/>
<polygon fill="black" stroke="black" points="347.81,-98.91 356.4,-92.71 345.82,-92.19 347.81,-98.91"/>
</g>
<!-- handleError&#39;&#45;&gt;m -->
<g id="edge6" class="edge">
<title>handleError&#39;&#45;&gt;m</title>
<path fill="none" stroke="black" d="M315.5,-73.76C326.05,-76.22 336.75,-78.72 346.06,-80.89"/>
<polygon fill="black" stroke="black" points="345.38,-84.32 355.91,-83.18 346.97,-77.51 345.38,-84.32"/>
</g>
<!-- M&#45;&gt;f -->
<g id="edge8" class="edge">
<title>M&#45;&gt;f</title>
<path fill="none" stroke="black" d="M494.88,-87.45C503.34,-87.45 512.74,-87.45 521.28,-87.45"/>
<polygon fill="black" stroke="black" points="521.52,-90.95 531.52,-87.45 521.52,-83.95 521.52,-90.95"/>
</g>
</g>
</svg>
