<?xml version="1.0" encoding="UTF-8" standalone="no"?>
<!DOCTYPE svg PUBLIC "-//W3C//DTD SVG 1.1//EN"
 "http://www.w3.org/Graphics/SVG/1.1/DTD/svg11.dtd">
<!-- Generated by graphviz version 2.43.0 (0)
 -->
<!-- Title: general_or Pages: 1 -->
<svg width="579pt" height="244pt"
 viewBox="0.00 0.00 579.39 244.20" xmlns="http://www.w3.org/2000/svg" xmlns:xlink="http://www.w3.org/1999/xlink">
<g id="graph0" class="graph" transform="scale(1 1) rotate(0) translate(4 240.2)">
<title>general_or</title>
<polygon fill="white" stroke="transparent" points="-4,4 -4,-240.2 575.39,-240.2 575.39,4 -4,4"/>
<!-- a1 -->
<g id="node1" class="node">
<title>a1</title>
<ellipse fill="none" stroke="black" cx="115.7" cy="-214.1" rx="22.2" ry="22.2"/>
<text text-anchor="middle" x="115.7" y="-210.4" font-family="Times,serif" font-size="14.00">a1</text>
</g>
<!-- T&#39;1 -->
<g id="node8" class="node">
<title>T&#39;1</title>
<polygon fill="none" stroke="black" points="231.4,-227.1 177.4,-227.1 177.4,-191.1 231.4,-191.1 231.4,-227.1"/>
<text text-anchor="middle" x="204.4" y="-205.4" font-family="Times,serif" font-size="14.00">T&#39;1</text>
</g>
<!-- a1&#45;&gt;T&#39;1 -->
<g id="edge5" class="edge">
<title>a1&#45;&gt;T&#39;1</title>
<path fill="none" stroke="black" d="M138.13,-212.86C146.91,-212.36 157.32,-211.76 167.22,-211.18"/>
<polygon fill="black" stroke="black" points="167.48,-214.68 177.26,-210.61 167.08,-207.69 167.48,-214.68"/>
</g>
<!-- a2 -->
<g id="node2" class="node">
<title>a2</title>
<ellipse fill="none" stroke="black" cx="115.7" cy="-152.1" rx="22.2" ry="22.2"/>
<text text-anchor="middle" x="115.7" y="-148.4" font-family="Times,serif" font-size="14.00">a2</text>
</g>
<!-- T&#39;2 -->
<g id="node9" class="node">
<title>T&#39;2</title>
<polygon fill="none" stroke="black" points="231.4,-168.1 177.4,-168.1 177.4,-132.1 231.4,-132.1 231.4,-168.1"/>
<text text-anchor="middle" x="204.4" y="-146.4" font-family="Times,serif" font-size="14.00">T&#39;2</text>
</g>
<!-- a2&#45;&gt;T&#39;2 -->
<g id="edge6" class="edge">
<title>a2&#45;&gt;T&#39;2</title>
<path fill="none" stroke="black" d="M138.13,-151.6C146.91,-151.4 157.32,-151.16 167.22,-150.93"/>
<polygon fill="black" stroke="black" points="167.35,-154.43 177.26,-150.7 167.18,-147.43 167.35,-154.43"/>
</g>
<!-- a... -->
<g id="node3" class="node">
<title>a...</title>
<ellipse fill="none" stroke="black" cx="115.7" cy="-87.1" rx="24.9" ry="24.9"/>
<text text-anchor="middle" x="115.7" y="-83.4" font-family="Times,serif" font-size="14.00">a...</text>
</g>
<!-- T&#39;... -->
<g id="node10" class="node">
<title>T&#39;...</title>
<polygon fill="none" stroke="black" points="231.4,-111.1 177.4,-111.1 177.4,-75.1 231.4,-75.1 231.4,-111.1"/>
<text text-anchor="middle" x="204.4" y="-89.4" font-family="Times,serif" font-size="14.00">T&#39;...</text>
</g>
<!-- a...&#45;&gt;T&#39;... -->
<g id="edge7" class="edge">
<title>a...&#45;&gt;T&#39;...</title>
<path fill="none" stroke="black" d="M140.39,-88.74C148.69,-89.31 158.22,-89.97 167.31,-90.6"/>
<polygon fill="black" stroke="black" points="167.08,-94.09 177.3,-91.29 167.56,-87.11 167.08,-94.09"/>
</g>
<!-- an -->
<g id="node4" class="node">
<title>an</title>
<ellipse fill="none" stroke="black" cx="115.7" cy="-22.1" rx="22.2" ry="22.2"/>
<text text-anchor="middle" x="115.7" y="-18.4" font-family="Times,serif" font-size="14.00">an</text>
</g>
<!-- T&#39;n -->
<g id="node11" class="node">
<title>T&#39;n</title>
<polygon fill="none" stroke="black" points="231.4,-52.1 177.4,-52.1 177.4,-16.1 231.4,-16.1 231.4,-52.1"/>
<text text-anchor="middle" x="204.4" y="-30.4" font-family="Times,serif" font-size="14.00">T&#39;n</text>
</g>
<!-- an&#45;&gt;T&#39;n -->
<g id="edge8" class="edge">
<title>an&#45;&gt;T&#39;n</title>
<path fill="none" stroke="black" d="M137.68,-25C146.54,-26.23 157.1,-27.69 167.15,-29.08"/>
<polygon fill="black" stroke="black" points="166.94,-32.59 177.33,-30.49 167.9,-25.65 166.94,-32.59"/>
</g>
<!-- m -->
<g id="node5" class="node">
<title>m</title>
<ellipse fill="none" stroke="black" cx="287.89" cy="-121.1" rx="19.5" ry="19.5"/>
<text text-anchor="middle" x="287.89" y="-117.4" font-family="Times,serif" font-size="14.00">m</text>
</g>
<!-- M -->
<g id="node12" class="node">
<title>M</title>
<polygon fill="none" stroke="black" points="407.39,-139.1 353.39,-139.1 353.39,-103.1 407.39,-103.1 407.39,-139.1"/>
<text text-anchor="middle" x="380.39" y="-117.4" font-family="Times,serif" font-size="14.00">M</text>
</g>
<!-- m&#45;&gt;M -->
<g id="edge13" class="edge">
<title>m&#45;&gt;M</title>
<path fill="none" stroke="black" d="M307.65,-121.1C317.82,-121.1 330.74,-121.1 342.82,-121.1"/>
<polygon fill="black" stroke="black" points="343.12,-124.6 353.12,-121.1 343.12,-117.6 343.12,-124.6"/>
<text text-anchor="middle" x="330.39" y="-124.9" font-family="Times,serif" font-size="14.00">n</text>
</g>
<!-- f -->
<g id="node6" class="node">
<title>f</title>
<ellipse fill="none" stroke="black" cx="462.39" cy="-121.1" rx="18" ry="18"/>
<text text-anchor="middle" x="462.39" y="-117.4" font-family="Times,serif" font-size="14.00">f</text>
</g>
<!-- F -->
<g id="node13" class="node">
<title>F</title>
<polygon fill="none" stroke="black" points="571.39,-139.1 517.39,-139.1 517.39,-103.1 571.39,-103.1 571.39,-139.1"/>
<text text-anchor="middle" x="544.39" y="-117.4" font-family="Times,serif" font-size="14.00">F</text>
</g>
<!-- f&#45;&gt;F -->
<g id="edge15" class="edge">
<title>f&#45;&gt;F</title>
<path fill="none" stroke="black" d="M480.75,-121.1C488.5,-121.1 497.93,-121.1 507.11,-121.1"/>
<polygon fill="black" stroke="black" points="507.25,-124.6 517.25,-121.1 507.25,-117.6 507.25,-124.6"/>
</g>
<!-- R -->
<g id="node7" class="node">
<title>R</title>
<polygon fill="none" stroke="black" points="54,-127.1 0,-127.1 0,-91.1 54,-91.1 54,-127.1"/>
<text text-anchor="middle" x="27" y="-105.4" font-family="Times,serif" font-size="14.00">R</text>
</g>
<!-- R&#45;&gt;a1 -->
<g id="edge1" class="edge">
<title>R&#45;&gt;a1</title>
<path fill="none" stroke="black" d="M43.1,-127.39C57.3,-144.58 78.66,-170.46 94.36,-189.46"/>
<polygon fill="black" stroke="black" points="91.85,-191.92 100.91,-197.4 97.24,-187.46 91.85,-191.92"/>
</g>
<!-- R&#45;&gt;a2 -->
<g id="edge2" class="edge">
<title>R&#45;&gt;a2</title>
<path fill="none" stroke="black" d="M54.01,-122C64.25,-127.08 76.02,-132.92 86.46,-138.1"/>
<polygon fill="black" stroke="black" points="85.08,-141.32 95.59,-142.62 88.19,-135.04 85.08,-141.32"/>
</g>
<!-- R&#45;&gt;a... -->
<g id="edge3" class="edge">
<title>R&#45;&gt;a...</title>
<path fill="none" stroke="black" d="M54.01,-102.5C62.71,-100.29 72.52,-97.8 81.68,-95.48"/>
<polygon fill="black" stroke="black" points="82.82,-98.8 91.65,-92.95 81.1,-92.01 82.82,-98.8"/>
</g>
<!-- R&#45;&gt;an -->
<g id="edge4" class="edge">
<title>R&#45;&gt;an</title>
<path fill="none" stroke="black" d="M45.96,-91.07C59.39,-77.59 77.85,-59.08 92.25,-44.62"/>
<polygon fill="black" stroke="black" points="94.79,-47.04 99.36,-37.48 89.83,-42.1 94.79,-47.04"/>
</g>
<!-- T&#39;1&#45;&gt;m -->
<g id="edge9" class="edge">
<title>T&#39;1&#45;&gt;m</title>
<path fill="none" stroke="black" d="M222.28,-190.86C235.26,-176.85 253.23,-157.44 266.93,-142.66"/>
<polygon fill="black" stroke="black" points="269.81,-144.69 274.04,-134.98 264.68,-139.94 269.81,-144.69"/>
</g>
<!-- T&#39;2&#45;&gt;m -->
<g id="edge10" class="edge">
<title>T&#39;2&#45;&gt;m</title>
<path fill="none" stroke="black" d="M231.63,-140.76C240.56,-137.59 250.55,-134.03 259.56,-130.82"/>
<polygon fill="black" stroke="black" points="260.96,-134.04 269.2,-127.39 258.61,-127.45 260.96,-134.04"/>
</g>
<!-- T&#39;...&#45;&gt;m -->
<g id="edge11" class="edge">
<title>T&#39;...&#45;&gt;m</title>
<path fill="none" stroke="black" d="M231.63,-102.11C240.56,-105.18 250.55,-108.61 259.56,-111.71"/>
<polygon fill="black" stroke="black" points="258.61,-115.08 269.2,-115.02 260.88,-108.46 258.61,-115.08"/>
</g>
<!-- T&#39;n&#45;&gt;m -->
<g id="edge12" class="edge">
<title>T&#39;n&#45;&gt;m</title>
<path fill="none" stroke="black" d="M222.28,-52.12C235.26,-65.98 253.23,-85.17 266.93,-99.79"/>
<polygon fill="black" stroke="black" points="264.65,-102.47 274.04,-107.37 269.76,-97.68 264.65,-102.47"/>
</g>
<!-- M&#45;&gt;f -->
<g id="edge14" class="edge">
<title>M&#45;&gt;f</title>
<path fill="none" stroke="black" d="M407.59,-121.1C416.05,-121.1 425.44,-121.1 433.99,-121.1"/>
<polygon fill="black" stroke="black" points="434.22,-124.6 444.22,-121.1 434.22,-117.6 434.22,-124.6"/>
</g>
</g>
</svg>
