<?xml version="1.0" encoding="UTF-8" standalone="no"?>
<!DOCTYPE svg PUBLIC "-//W3C//DTD SVG 1.1//EN"
 "http://www.w3.org/Graphics/SVG/1.1/DTD/svg11.dtd">
<!-- Generated by graphviz version 2.43.0 (0)
 -->
<!-- Title: cond_routing Pages: 1 -->
<svg width="321pt" height="67pt"
 viewBox="0.00 0.00 321.20 67.00" xmlns="http://www.w3.org/2000/svg" xmlns:xlink="http://www.w3.org/1999/xlink">
<g id="graph0" class="graph" transform="scale(1 1) rotate(0) translate(4 63)">
<title>cond_routing</title>
<polygon fill="white" stroke="transparent" points="-4,4 -4,-63 317.2,-63 317.2,4 -4,4"/>
<!-- A -->
<g id="node1" class="node">
<title>A</title>
<polygon fill="none" stroke="black" points="54,-36 0,-36 0,0 54,0 54,-36"/>
<text text-anchor="middle" x="27" y="-14.3" font-family="Times,serif" font-size="14.00">A</text>
</g>
<!-- m1 -->
<g id="node4" class="node">
<title>m1</title>
<ellipse fill="black" stroke="black" cx="91.8" cy="-18" rx="1.8" ry="1.8"/>
</g>
<!-- A&#45;&gt;m1 -->
<g id="edge1" class="edge">
<title>A&#45;&gt;m1</title>
<path fill="none" stroke="black" d="M54.27,-18C63.21,-18 72.72,-18 79.8,-18"/>
<polygon fill="black" stroke="black" points="79.94,-21.5 89.94,-18 79.94,-14.5 79.94,-21.5"/>
</g>
<!-- B -->
<g id="node2" class="node">
<title>B</title>
<polygon fill="none" stroke="black" points="183.6,-59 129.6,-59 129.6,-23 183.6,-23 183.6,-59"/>
<text text-anchor="middle" x="156.6" y="-37.3" font-family="Times,serif" font-size="14.00">B</text>
</g>
<!-- m2 -->
<g id="node5" class="node">
<title>m2</title>
<ellipse fill="black" stroke="black" cx="221.4" cy="-18" rx="1.8" ry="1.8"/>
</g>
<!-- B&#45;&gt;m2 -->
<g id="edge3" class="edge">
<title>B&#45;&gt;m2</title>
<path fill="none" stroke="black" d="M183.87,-31.38C193.04,-28.02 202.82,-24.44 209.95,-21.83"/>
<polygon fill="black" stroke="black" points="211.35,-25.04 219.54,-18.32 208.94,-18.47 211.35,-25.04"/>
</g>
<!-- C -->
<g id="node3" class="node">
<title>C</title>
<polygon fill="none" stroke="black" points="313.2,-36 259.2,-36 259.2,0 313.2,0 313.2,-36"/>
<text text-anchor="middle" x="286.2" y="-14.3" font-family="Times,serif" font-size="14.00">C</text>
</g>
<!-- m1&#45;&gt;B -->
<g id="edge2" class="edge">
<title>m1&#45;&gt;B</title>
<path fill="none" stroke="black" d="M93.89,-18.4C97.31,-19.65 108.29,-23.67 120.07,-27.99"/>
<polygon fill="black" stroke="black" points="118.96,-31.31 129.55,-31.46 121.37,-24.73 118.96,-31.31"/>
</g>
<!-- m2&#45;&gt;C -->
<g id="edge4" class="edge">
<title>m2&#45;&gt;C</title>
<path fill="none" stroke="black" d="M223.49,-18C226.84,-18 237.46,-18 248.97,-18"/>
<polygon fill="black" stroke="black" points="249.15,-21.5 259.15,-18 249.15,-14.5 249.15,-21.5"/>
</g>
<!-- m2&#45;&gt;m1 -->
<g id="edge5" class="edge">
<title>m2&#45;&gt;m1</title>
<path fill="none" stroke="black" d="M219.49,-17.86C215.37,-17.26 197.97,-14.78 183.6,-14 159.64,-12.7 153.56,-12.7 129.6,-14 120.84,-14.47 110.96,-15.58 103.64,-16.51"/>
<polygon fill="black" stroke="black" points="103.14,-13.05 93.71,-17.86 104.09,-19.98 103.14,-13.05"/>
</g>
</g>
</svg>
