<?xml version="1.0" encoding="UTF-8" standalone="no"?>
<!DOCTYPE svg PUBLIC "-//W3C//DTD SVG 1.1//EN"
 "http://www.w3.org/Graphics/SVG/1.1/DTD/svg11.dtd">
<!-- Generated by graphviz version 2.43.0 (0)
 -->
<!-- Title: somenet Pages: 1 -->
<svg width="381pt" height="98pt"
 viewBox="0.00 0.00 381.00 98.00" xmlns="http://www.w3.org/2000/svg" xmlns:xlink="http://www.w3.org/1999/xlink">
<g id="graph0" class="graph" transform="scale(1 1) rotate(0) translate(4 94)">
<title>somenet</title>
<polygon fill="white" stroke="transparent" points="-4,4 -4,-94 377,-94 377,4 -4,4"/>
<!-- 0 -->
<g id="node1" class="node">
<title>0</title>
<ellipse fill="none" stroke="black" cx="18" cy="-44" rx="18" ry="18"/>
<text text-anchor="middle" x="18" y="-40.3" font-family="Times,serif" font-size="14.00">0</text>
</g>
<!-- t1 -->
<g id="node5" class="node">
<title>t1</title>
<polygon fill="none" stroke="black" points="136,-62 82,-62 82,-26 136,-26 136,-62"/>
<text text-anchor="middle" x="109" y="-40.3" font-family="Times,serif" font-size="14.00">t1</text>
</g>
<!-- 0&#45;&gt;t1 -->
<g id="edge1" class="edge">
<title>0&#45;&gt;t1</title>
<path fill="none" stroke="black" d="M36.16,-44C46.26,-44 59.43,-44 71.74,-44"/>
<polygon fill="black" stroke="black" points="71.78,-47.5 81.78,-44 71.78,-40.5 71.78,-47.5"/>
<text text-anchor="middle" x="59" y="-47.8" font-family="Times,serif" font-size="14.00">2</text>
</g>
<!-- 1 -->
<g id="node2" class="node">
<title>1</title>
<ellipse fill="none" stroke="black" cx="191" cy="-72" rx="18" ry="18"/>
<text text-anchor="middle" x="191" y="-68.3" font-family="Times,serif" font-size="14.00">1</text>
</g>
<!-- t2 -->
<g id="node6" class="node">
<title>t2</title>
<polygon fill="none" stroke="black" points="300,-62 246,-62 246,-26 300,-26 300,-62"/>
<text text-anchor="middle" x="273" y="-40.3" font-family="Times,serif" font-size="14.00">t2</text>
</g>
<!-- 1&#45;&gt;t2 -->
<g id="edge4" class="edge">
<title>1&#45;&gt;t2</title>
<path fill="none" stroke="black" d="M208.19,-66.33C216.27,-63.51 226.39,-59.96 236.17,-56.54"/>
<polygon fill="black" stroke="black" points="237.47,-59.79 245.76,-53.19 235.16,-53.19 237.47,-59.79"/>
</g>
<!-- 2 -->
<g id="node3" class="node">
<title>2</title>
<ellipse fill="none" stroke="black" cx="191" cy="-18" rx="18" ry="18"/>
<text text-anchor="middle" x="191" y="-14.3" font-family="Times,serif" font-size="14.00">2</text>
</g>
<!-- 2&#45;&gt;t2 -->
<g id="edge5" class="edge">
<title>2&#45;&gt;t2</title>
<path fill="none" stroke="black" d="M208.58,-23.39C216.68,-26.02 226.76,-29.3 236.48,-32.46"/>
<polygon fill="black" stroke="black" points="235.4,-35.79 246,-35.55 237.57,-29.13 235.4,-35.79"/>
</g>
<!-- 3 -->
<g id="node4" class="node">
<title>3</title>
<ellipse fill="none" stroke="black" cx="355" cy="-44" rx="18" ry="18"/>
<text text-anchor="middle" x="355" y="-40.3" font-family="Times,serif" font-size="14.00">3</text>
</g>
<!-- t1&#45;&gt;1 -->
<g id="edge2" class="edge">
<title>t1&#45;&gt;1</title>
<path fill="none" stroke="black" d="M136.19,-53.17C145.2,-56.32 155.27,-59.84 164.24,-62.98"/>
<polygon fill="black" stroke="black" points="163.19,-66.33 173.79,-66.33 165.5,-59.72 163.19,-66.33"/>
</g>
<!-- t1&#45;&gt;2 -->
<g id="edge3" class="edge">
<title>t1&#45;&gt;2</title>
<path fill="none" stroke="black" d="M136.19,-35.49C145.2,-32.56 155.27,-29.29 164.24,-26.37"/>
<polygon fill="black" stroke="black" points="165.36,-29.69 173.79,-23.27 163.19,-23.03 165.36,-29.69"/>
</g>
<!-- t2&#45;&gt;3 -->
<g id="edge6" class="edge">
<title>t2&#45;&gt;3</title>
<path fill="none" stroke="black" d="M300.19,-44C308.65,-44 318.05,-44 326.6,-44"/>
<polygon fill="black" stroke="black" points="326.83,-47.5 336.83,-44 326.83,-40.5 326.83,-47.5"/>
</g>
</g>
</svg>
