<?xml version="1.0" encoding="UTF-8" standalone="no"?>
<!DOCTYPE svg PUBLIC "-//W3C//DTD SVG 1.1//EN"
 "http://www.w3.org/Graphics/SVG/1.1/DTD/svg11.dtd">
<!-- Generated by graphviz version 2.43.0 (0)
 -->
<!-- Title: C Pages: 1 -->
<svg width="133pt" height="51pt"
 viewBox="0.00 0.00 133.34 51.50" xmlns="http://www.w3.org/2000/svg" xmlns:xlink="http://www.w3.org/1999/xlink">
<g id="graph0" class="graph" transform="scale(1 1) rotate(0) translate(4 47.5)">
<title>C</title>
<polygon fill="transparent" stroke="transparent" points="-4,4 -4,-47.5 129.34,-47.5 129.34,4 -4,4"/>
<!-- X -->
<g id="node1" class="node">
<title>X</title>
<text text-anchor="middle" x="78.34" y="-18.05" font-family="Times,serif" font-size="14.00" fill="#f92672">X</text>
</g>
<!-- X&#45;&gt;X -->
<g id="edge1" class="edge">
<title>X&#45;&gt;X</title>
<path fill="none" stroke="#fd971f" d="M83.77,-26.12C91.61,-30.38 101.34,-28.92 101.34,-21.75 101.34,-17.6 98.09,-15.37 93.83,-15.04"/>
<polygon fill="#fd971f" stroke="#fd971f" points="92.72,-11.71 83.77,-17.38 94.3,-18.52 92.72,-11.71"/>
<text text-anchor="middle" x="113.34" y="-18.05" font-family="Times,serif" font-size="14.00" fill="#66d9ef">idX</text>
</g>
<!-- Y -->
<g id="node2" class="node">
<title>Y</title>
<text text-anchor="middle" x="5" y="-18.05" font-family="Times,serif" font-size="14.00" fill="#f92672">Y</text>
</g>
<!-- X&#45;&gt;Y -->
<g id="edge3" class="edge">
<title>X&#45;&gt;Y</title>
<path fill="none" stroke="#fd971f" d="M73.07,-18.05C62.18,-14.77 36.85,-14.14 20.35,-16.14"/>
<polygon fill="#fd971f" stroke="#fd971f" points="19.4,-12.76 10.23,-18.06 20.7,-19.63 19.4,-12.76"/>
<text text-anchor="middle" x="38.88" y="-3.8" font-family="Times,serif" font-size="14.00" fill="#66d9ef">f</text>
</g>
<!-- Y&#45;&gt;X -->
<g id="edge4" class="edge">
<title>Y&#45;&gt;X</title>
<path fill="none" stroke="#fd971f" d="M10.27,-25.45C21.16,-28.73 46.49,-29.36 62.99,-27.36"/>
<polygon fill="#fd971f" stroke="#fd971f" points="63.95,-30.74 73.12,-25.44 62.64,-23.87 63.95,-30.74"/>
<text text-anchor="middle" x="36.47" y="-32.3" font-family="Times,serif" font-size="14.00" fill="#66d9ef">g</text>
</g>
<!-- Y&#45;&gt;Y -->
<g id="edge2" class="edge">
<title>Y&#45;&gt;Y</title>
<path fill="none" stroke="#fd971f" d="M10.43,-26.12C18.26,-30.38 28,-28.92 28,-21.75 28,-17.6 24.75,-15.37 20.49,-15.04"/>
<polygon fill="#fd971f" stroke="#fd971f" points="19.38,-11.71 10.43,-17.38 20.96,-18.52 19.38,-11.71"/>
<text text-anchor="middle" x="39.5" y="-18.05" font-family="Times,serif" font-size="14.00" fill="#66d9ef">idY</text>
</g>
</g>
</svg>
