<?xml version="1.0" encoding="UTF-8" standalone="no"?>
<!DOCTYPE svg PUBLIC "-//W3C//DTD SVG 1.1//EN"
 "http://www.w3.org/Graphics/SVG/1.1/DTD/svg11.dtd">
<!-- Generated by graphviz version 2.43.0 (0)
 -->
<!-- Title: C Pages: 1 -->
<svg width="231pt" height="72pt"
 viewBox="0.00 0.00 230.97 72.10" xmlns="http://www.w3.org/2000/svg" xmlns:xlink="http://www.w3.org/1999/xlink">
<g id="graph0" class="graph" transform="scale(1 1) rotate(0) translate(4 68.1)">
<title>C</title>
<polygon fill="transparent" stroke="transparent" points="-4,4 -4,-68.1 226.97,-68.1 226.97,4 -4,4"/>
<!-- I -->
<g id="node1" class="node">
<title>I</title>
<text text-anchor="middle" x="220.47" y="-28.47" font-family="Times,serif" font-size="14.00" fill="#f92672">I</text>
</g>
<!-- X -->
<g id="node2" class="node">
<title>X</title>
<text text-anchor="middle" x="147.17" y="-3.89" font-family="Times,serif" font-size="14.00" fill="#f92672">X</text>
</g>
<!-- I&#45;&gt;X -->
<g id="edge1" class="edge">
<title>I&#45;&gt;X</title>
<path fill="none" stroke="#fd971f" d="M217.59,-30.18C201.08,-18.77 197.38,-17.12 162.38,-10.46"/>
<polygon fill="#fd971f" stroke="#fd971f" points="162.69,-6.95 152.21,-8.54 161.39,-13.83 162.69,-6.95"/>
</g>
<!-- Y -->
<g id="node3" class="node">
<title>Y</title>
<text text-anchor="middle" x="147.01" y="-52.83" font-family="Times,serif" font-size="14.00" fill="#f92672">Y</text>
</g>
<!-- I&#45;&gt;Y -->
<g id="edge2" class="edge">
<title>I&#45;&gt;Y</title>
<path fill="none" stroke="#fd971f" d="M217.58,-34.16C201.02,-45.5 197.3,-47.14 162.24,-53.7"/>
<polygon fill="#fd971f" stroke="#fd971f" points="161.26,-50.33 152.06,-55.59 162.53,-57.21 161.26,-50.33"/>
</g>
<!-- X&#45;&gt;Y -->
<g id="edge3" class="edge">
<title>X&#45;&gt;Y</title>
<path fill="none" stroke="#fd971f" d="M142.08,-15.22C140.52,-21.5 140,-30.65 140.55,-38.74"/>
<polygon fill="#fd971f" stroke="#fd971f" points="137.1,-39.34 141.95,-48.76 144.03,-38.37 137.1,-39.34"/>
</g>
<!-- Z -->
<g id="node4" class="node">
<title>Z</title>
<text text-anchor="middle" x="78.31" y="-52.9" font-family="Times,serif" font-size="14.00" fill="#f92672">Z</text>
</g>
<!-- X&#45;&gt;Z -->
<g id="edge4" class="edge">
<title>X&#45;&gt;Z</title>
<path fill="none" stroke="#fd971f" d="M142.04,-7.42C130.78,-10.8 104.68,-28.35 89.51,-41.73"/>
<polygon fill="#fd971f" stroke="#fd971f" points="86.77,-39.51 82.04,-48.99 91.65,-44.53 86.77,-39.51"/>
</g>
<!-- W -->
<g id="node5" class="node">
<title>W</title>
<text text-anchor="middle" x="78.16" y="-3.8" font-family="Times,serif" font-size="14.00" fill="#f92672">W</text>
</g>
<!-- X&#45;&gt;W -->
<g id="edge5" class="edge">
<title>X&#45;&gt;W</title>
<path fill="none" stroke="#fd971f" d="M141.76,-3.74C131.94,-0.78 110.79,-0.04 95.57,-1.57"/>
<polygon fill="#fd971f" stroke="#fd971f" points="94.71,1.84 85.38,-3.18 95.8,-5.08 94.71,1.84"/>
</g>
<!-- Y&#45;&gt;X -->
<g id="edge6" class="edge">
<title>Y&#45;&gt;X</title>
<path fill="none" stroke="#fd971f" d="M152.1,-48.9C153.66,-42.62 154.17,-33.47 153.63,-25.37"/>
<polygon fill="#fd971f" stroke="#fd971f" points="157.08,-24.78 152.23,-15.36 150.15,-25.75 157.08,-24.78"/>
</g>
<!-- Y&#45;&gt;Z -->
<g id="edge7" class="edge">
<title>Y&#45;&gt;Z</title>
<path fill="none" stroke="#fd971f" d="M141.62,-52.69C131.33,-49.59 108.58,-49 93.34,-50.89"/>
<polygon fill="#fd971f" stroke="#fd971f" points="92.24,-47.54 83.12,-52.93 93.61,-54.4 92.24,-47.54"/>
</g>
<!-- Y&#45;&gt;W -->
<g id="edge8" class="edge">
<title>Y&#45;&gt;W</title>
<path fill="none" stroke="#fd971f" d="M143.04,-48.65C133.63,-38.28 110.61,-21.34 94.61,-12.51"/>
<polygon fill="#fd971f" stroke="#fd971f" points="95.85,-9.23 85.32,-8.03 92.81,-15.53 95.85,-9.23"/>
</g>
<!-- Z&#45;&gt;X -->
<g id="edge9" class="edge">
<title>Z&#45;&gt;X</title>
<path fill="none" stroke="#fd971f" d="M82.98,-56.9C93.93,-53.89 120.35,-36.19 135.76,-22.65"/>
<polygon fill="#fd971f" stroke="#fd971f" points="138.6,-24.76 143.35,-15.3 133.73,-19.73 138.6,-24.76"/>
</g>
<!-- Z&#45;&gt;Y -->
<g id="edge10" class="edge">
<title>Z&#45;&gt;Y</title>
<path fill="none" stroke="#fd971f" d="M82.82,-60.15C92.53,-63.46 115.79,-64.16 131.48,-62.3"/>
<polygon fill="#fd971f" stroke="#fd971f" points="132.48,-65.67 141.65,-60.37 131.17,-58.79 132.48,-65.67"/>
</g>
<!-- Z&#45;&gt;W -->
<g id="edge11" class="edge">
<title>Z&#45;&gt;W</title>
<path fill="none" stroke="#fd971f" d="M82.9,-50.56C84.78,-44.29 85.38,-34.17 84.73,-25.32"/>
<polygon fill="#fd971f" stroke="#fd971f" points="88.16,-24.56 83.25,-15.17 81.23,-25.57 88.16,-24.56"/>
</g>
<!-- O -->
<g id="node6" class="node">
<title>O</title>
<text text-anchor="middle" x="5" y="-28.48" font-family="Times,serif" font-size="14.00" fill="#f92672">O</text>
</g>
<!-- Z&#45;&gt;O -->
<g id="edge15" class="edge">
<title>Z&#45;&gt;O</title>
<path fill="none" stroke="#fd971f" d="M73.6,-55.73C39.52,-49.47 29.72,-47.5 19.08,-41.45"/>
<polygon fill="#fd971f" stroke="#fd971f" points="20.68,-38.31 10.37,-35.89 16.91,-44.22 20.68,-38.31"/>
</g>
<!-- W&#45;&gt;X -->
<g id="edge12" class="edge">
<title>W&#45;&gt;X</title>
<path fill="none" stroke="#fd971f" d="M85.28,-11.82C96.25,-14.53 117.55,-15.02 132.06,-13.27"/>
<polygon fill="#fd971f" stroke="#fd971f" points="132.76,-16.7 141.92,-11.38 131.44,-9.82 132.76,-16.7"/>
</g>
<!-- W&#45;&gt;Y -->
<g id="edge13" class="edge">
<title>W&#45;&gt;Y</title>
<path fill="none" stroke="#fd971f" d="M82.12,-15.37C91.9,-26.15 116.37,-44.02 132.4,-52.51"/>
<polygon fill="#fd971f" stroke="#fd971f" points="131.3,-55.85 141.86,-56.69 134.12,-49.44 131.3,-55.85"/>
</g>
<!-- W&#45;&gt;Z -->
<g id="edge14" class="edge">
<title>W&#45;&gt;Z</title>
<path fill="none" stroke="#fd971f" d="M73.12,-15.19C71.45,-22.09 71.06,-32.44 71.93,-41.07"/>
<polygon fill="#fd971f" stroke="#fd971f" points="68.51,-41.8 73.8,-50.98 75.39,-40.5 68.51,-41.8"/>
</g>
<!-- W&#45;&gt;O -->
<g id="edge16" class="edge">
<title>W&#45;&gt;O</title>
<path fill="none" stroke="#fd971f" d="M70.93,-8.85C38.71,-14.89 29.24,-16.94 18.81,-22.98"/>
<polygon fill="#fd971f" stroke="#fd971f" points="16.76,-20.14 10.26,-28.51 20.56,-26.02 16.76,-20.14"/>
</g>
</g>
</svg>
