<?xml version="1.0" encoding="UTF-8" standalone="no"?>
<!DOCTYPE svg PUBLIC "-//W3C//DTD SVG 1.1//EN"
 "http://www.w3.org/Graphics/SVG/1.1/DTD/svg11.dtd">
<!-- Generated by graphviz version 2.40.1 (20161225.0304)
 -->
<!-- Title: C Pages: 1 -->
<svg width="203pt" height="143pt"
 viewBox="0.00 0.00 203.23 142.58" xmlns="http://www.w3.org/2000/svg" xmlns:xlink="http://www.w3.org/1999/xlink">
<g id="graph0" class="graph" transform="scale(1 1) rotate(0) translate(4 138.5838)">
<title>C</title>
<polygon fill="transparent" stroke="transparent" points="-4,4 -4,-138.5838 199.235,-138.5838 199.235,4 -4,4"/>
<!-- A × B -->
<g id="node1" class="node">
<title>A × B</title>
<text text-anchor="middle" x="90.5033" y="-123.3838" font-family="Times,serif" font-size="14.00" fill="#f92672">A × B</text>
</g>
<!-- A -->
<g id="node2" class="node">
<title>A</title>
<text text-anchor="middle" x="190.235" y="-63.5999" font-family="Times,serif" font-size="14.00" fill="#f92672">A</text>
</g>
<!-- A × B&#45;&gt;A -->
<g id="edge4" class="edge">
<title>A × B&#45;&gt;A</title>
<path fill="none" stroke="#fd971f" d="M108.1528,-122.8128C151.7629,-112.091 160.3495,-107.812 178.8695,-83.0266"/>
<polygon fill="#fd971f" stroke="#fd971f" points="181.9175,-84.7872 184.9857,-74.6464 176.2633,-80.6605 181.9175,-84.7872"/>
<text text-anchor="middle" x="146.036" y="-111.9289" font-family="Times,serif" font-size="14.00" fill="#66d9ef">p1</text>
</g>
<!-- B -->
<g id="node3" class="node">
<title>B</title>
<text text-anchor="middle" x="5" y="-63.6256" font-family="Times,serif" font-size="14.00" fill="#f92672">B</text>
</g>
<!-- A × B&#45;&gt;B -->
<g id="edge5" class="edge">
<title>A × B&#45;&gt;B</title>
<path fill="none" stroke="#fd971f" d="M72.9536,-121.5022C37.0289,-109.8802 29.2201,-105.2123 14.9943,-83.3636"/>
<polygon fill="#fd971f" stroke="#fd971f" points="17.9361,-81.4669 9.6383,-74.8793 12.0169,-85.2037 17.9361,-81.4669"/>
<text text-anchor="middle" x="28.6447" y="-109.9423" font-family="Times,serif" font-size="14.00" fill="#66d9ef">p2</text>
</g>
<!-- X -->
<g id="node4" class="node">
<title>X</title>
<text text-anchor="middle" x="90.4518" y="-3.8" font-family="Times,serif" font-size="14.00" fill="#f92672">X</text>
</g>
<!-- X&#45;&gt;A × B -->
<g id="edge2" class="edge">
<title>X&#45;&gt;A × B</title>
<path fill="none" stroke="#fd971f" d="M87.3768,-15.2068C68.8971,-61.6611 67.6745,-68.8102 83.7408,-110.0566"/>
<polygon fill="#fd971f" stroke="#fd971f" points="80.503,-111.3868 87.4316,-119.4021 87.0137,-108.8155 80.503,-111.3868"/>
<text text-anchor="middle" x="54.5408" y="-71.3654" font-family="Times,serif" font-size="14.00" fill="#66d9ef">&lt;f, g&gt;</text>
</g>
<!-- X&#45;&gt;A -->
<g id="edge1" class="edge">
<title>X&#45;&gt;A</title>
<path fill="none" stroke="#fd971f" d="M95.5725,-8.7305C150.2915,-21.893 158.6802,-24.5618 178.8672,-51.5734"/>
<polygon fill="#fd971f" stroke="#fd971f" points="176.1986,-53.8539 184.9221,-59.8665 181.8521,-49.7262 176.1986,-53.8539"/>
<text text-anchor="middle" x="147.7029" y="-28.7752" font-family="Times,serif" font-size="14.00" fill="#66d9ef">f</text>
</g>
<!-- X&#45;&gt;B -->
<g id="edge3" class="edge">
<title>X&#45;&gt;B</title>
<path fill="none" stroke="#fd971f" d="M85.2775,-9.139C38.7428,-23.895 30.7491,-27.0854 15.1531,-51.0155"/>
<polygon fill="#fd971f" stroke="#fd971f" points="12.1412,-49.2301 9.7638,-59.5547 18.0609,-52.9661 12.1412,-49.2301"/>
<text text-anchor="middle" x="35.0847" y="-30.4535" font-family="Times,serif" font-size="14.00" fill="#66d9ef">g</text>
</g>
<!-- Y -->
<g id="node5" class="node">
<title>Y</title>
<text text-anchor="middle" x="108.1904" y="-63.5275" font-family="Times,serif" font-size="14.00" fill="#f92672">Y</text>
</g>
<!-- Y&#45;&gt;A × B -->
<g id="edge9" class="edge">
<title>Y&#45;&gt;A × B</title>
<path fill="none" stroke="#fd971f" d="M106.6746,-75.1291C103.0104,-94.1799 101.1856,-103.0598 98.7906,-109.9232"/>
<polygon fill="#fd971f" stroke="#fd971f" points="95.4077,-108.9223 94.5931,-119.4858 101.8174,-111.7359 95.4077,-108.9223"/>
<text text-anchor="middle" x="66.1434" y="-86.4038" font-family="Times,serif" font-size="14.00" fill="#66d9ef">&lt;f . h, g . h&gt;</text>
</g>
<!-- Y&#45;&gt;A -->
<g id="edge6" class="edge">
<title>Y&#45;&gt;A</title>
<path fill="none" stroke="#fd971f" d="M113.4088,-67.2299C151.783,-67.2481 162.3689,-67.2537 174.7379,-67.2727"/>
<polygon fill="#fd971f" stroke="#fd971f" points="175.0279,-70.7731 185.0339,-67.2904 175.0399,-63.7732 175.0279,-70.7731"/>
<text text-anchor="middle" x="142.3779" y="-71.0511" font-family="Times,serif" font-size="14.00" fill="#66d9ef">f . h</text>
</g>
<!-- Y&#45;&gt;B -->
<g id="edge8" class="edge">
<title>Y&#45;&gt;B</title>
<path fill="none" stroke="#fd971f" d="M102.8262,-67.2305C49.2035,-67.2612 38.076,-67.2682 20.2271,-67.2983"/>
<polygon fill="#fd971f" stroke="#fd971f" points="20.0136,-63.7986 10.0199,-67.3164 20.0261,-70.7986 20.0136,-63.7986"/>
<text text-anchor="middle" x="35.5943" y="-56.0646" font-family="Times,serif" font-size="14.00" fill="#66d9ef">g . h</text>
</g>
<!-- Y&#45;&gt;X -->
<g id="edge7" class="edge">
<title>Y&#45;&gt;X</title>
<path fill="none" stroke="#fd971f" d="M106.6673,-59.3417C102.9855,-40.3294 101.1525,-31.4676 98.7519,-24.6195"/>
<polygon fill="#fd971f" stroke="#fd971f" points="101.7829,-22.8183 94.547,-15.0793 95.3775,-25.6415 101.7829,-22.8183"/>
<text text-anchor="middle" x="98.6154" y="-40.7127" font-family="Times,serif" font-size="14.00" fill="#66d9ef">h</text>
</g>
</g>
</svg>
