<?xml version="1.0" encoding="UTF-8" standalone="no"?>
<!DOCTYPE svg PUBLIC "-//W3C//DTD SVG 1.1//EN"
 "http://www.w3.org/Graphics/SVG/1.1/DTD/svg11.dtd">
<!-- Generated by graphviz version 2.43.0 (0)
 -->
<!-- Title: C Pages: 1 -->
<svg width="237pt" height="73pt"
 viewBox="0.00 0.00 236.88 73.10" xmlns="http://www.w3.org/2000/svg" xmlns:xlink="http://www.w3.org/1999/xlink">
<g id="graph0" class="graph" transform="scale(1 1) rotate(0) translate(4 69.1)">
<title>C</title>
<polygon fill="transparent" stroke="transparent" points="-4,4 -4,-69.1 232.88,-69.1 232.88,4 -4,4"/>
<!-- I -->
<g id="node1" class="node">
<title>I</title>
<text text-anchor="middle" x="225.88" y="-28.98" font-family="Times,serif" font-size="14.00" fill="#f92672">I</text>
</g>
<!-- X -->
<g id="node2" class="node">
<title>X</title>
<text text-anchor="middle" x="151.08" y="-3.89" font-family="Times,serif" font-size="14.00" fill="#f92672">X</text>
</g>
<!-- I&#45;&gt;X -->
<g id="edge1" class="edge">
<title>I&#45;&gt;X</title>
<path fill="none" stroke="#fd971f" d="M222.48,-30.32C205.94,-18.92 201.95,-17.25 166.03,-10.41"/>
<polygon fill="#fd971f" stroke="#fd971f" points="166.66,-6.97 156.19,-8.55 165.37,-13.85 166.66,-6.97"/>
</g>
<!-- Y -->
<g id="node3" class="node">
<title>Y</title>
<text text-anchor="middle" x="150.92" y="-53.83" font-family="Times,serif" font-size="14.00" fill="#f92672">Y</text>
</g>
<!-- I&#45;&gt;Y -->
<g id="edge2" class="edge">
<title>I&#45;&gt;Y</title>
<path fill="none" stroke="#fd971f" d="M222.47,-35.02C205.88,-46.37 201.87,-48.02 165.9,-54.76"/>
<polygon fill="#fd971f" stroke="#fd971f" points="165.23,-51.32 156.04,-56.59 166.51,-58.2 165.23,-51.32"/>
</g>
<!-- X&#45;&gt;Y -->
<g id="edge3" class="edge">
<title>X&#45;&gt;Y</title>
<path fill="none" stroke="#fd971f" d="M145.99,-15.38C144.4,-21.94 143.89,-31.56 144.5,-39.96"/>
<polygon fill="#fd971f" stroke="#fd971f" points="141.05,-40.53 145.94,-49.93 147.97,-39.53 141.05,-40.53"/>
</g>
<!-- Z -->
<g id="node4" class="node">
<title>Z</title>
<text text-anchor="middle" x="80.81" y="-53.9" font-family="Times,serif" font-size="14.00" fill="#f92672">Z</text>
</g>
<!-- X&#45;&gt;Z -->
<g id="edge4" class="edge">
<title>X&#45;&gt;Z</title>
<path fill="none" stroke="#fd971f" d="M145.89,-7.47C134.33,-11.02 107.31,-29.24 91.88,-42.91"/>
<polygon fill="#fd971f" stroke="#fd971f" points="89.4,-40.43 84.66,-49.91 94.28,-45.45 89.4,-40.43"/>
</g>
<!-- W -->
<g id="node5" class="node">
<title>W</title>
<text text-anchor="middle" x="80.66" y="-3.8" font-family="Times,serif" font-size="14.00" fill="#f92672">W</text>
</g>
<!-- X&#45;&gt;W -->
<g id="edge5" class="edge">
<title>X&#45;&gt;W</title>
<path fill="none" stroke="#fd971f" d="M146.02,-3.89C136.28,-0.82 114.49,-0.03 98.74,-1.54"/>
<polygon fill="#fd971f" stroke="#fd971f" points="97.98,1.88 88.6,-3.05 99.01,-5.04 97.98,1.88"/>
</g>
<!-- Y&#45;&gt;X -->
<g id="edge6" class="edge">
<title>Y&#45;&gt;X</title>
<path fill="none" stroke="#fd971f" d="M156.01,-49.74C157.61,-43.19 158.11,-33.56 157.5,-25.17"/>
<polygon fill="#fd971f" stroke="#fd971f" points="160.96,-24.59 156.07,-15.2 154.03,-25.59 160.96,-24.59"/>
</g>
<!-- Y&#45;&gt;Z -->
<g id="edge7" class="edge">
<title>Y&#45;&gt;Z</title>
<path fill="none" stroke="#fd971f" d="M145.87,-53.83C135.66,-50.63 112.18,-49.98 96.4,-51.86"/>
<polygon fill="#fd971f" stroke="#fd971f" points="95.36,-48.5 86.18,-53.79 96.66,-55.38 95.36,-48.5"/>
</g>
<!-- Y&#45;&gt;W -->
<g id="edge8" class="edge">
<title>Y&#45;&gt;W</title>
<path fill="none" stroke="#fd971f" d="M147.24,-50.02C137.93,-39.6 114.18,-22.07 97.65,-12.86"/>
<polygon fill="#fd971f" stroke="#fd971f" points="99,-9.62 88.48,-8.33 95.9,-15.89 99,-9.62"/>
</g>
<!-- Z&#45;&gt;X -->
<g id="edge9" class="edge">
<title>Z&#45;&gt;X</title>
<path fill="none" stroke="#fd971f" d="M86,-57.73C97.56,-54.18 124.58,-35.96 140.02,-22.29"/>
<polygon fill="#fd971f" stroke="#fd971f" points="142.49,-24.77 147.23,-15.29 137.61,-19.74 142.49,-24.77"/>
</g>
<!-- Z&#45;&gt;Y -->
<g id="edge10" class="edge">
<title>Z&#45;&gt;Y</title>
<path fill="none" stroke="#fd971f" d="M85.86,-61.3C96.07,-64.5 119.55,-65.15 135.33,-63.27"/>
<polygon fill="#fd971f" stroke="#fd971f" points="136.37,-66.64 145.55,-61.34 135.07,-59.76 136.37,-66.64"/>
</g>
<!-- Z&#45;&gt;W -->
<g id="edge11" class="edge">
<title>Z&#45;&gt;W</title>
<path fill="none" stroke="#fd971f" d="M85.85,-49.76C87.41,-43.17 87.85,-33.51 87.19,-25.09"/>
<polygon fill="#fd971f" stroke="#fd971f" points="90.63,-24.46 85.69,-15.09 83.71,-25.5 90.63,-24.46"/>
</g>
<!-- O -->
<g id="node6" class="node">
<title>O</title>
<text text-anchor="middle" x="6" y="-28.98" font-family="Times,serif" font-size="14.00" fill="#f92672">O</text>
</g>
<!-- Z&#45;&gt;O -->
<g id="edge15" class="edge">
<title>Z&#45;&gt;O</title>
<path fill="none" stroke="#fd971f" d="M75.71,-56.67C41.75,-50.43 31.53,-48.37 20.9,-42.45"/>
<polygon fill="#fd971f" stroke="#fd971f" points="22.62,-39.39 12.29,-37.03 18.89,-45.32 22.62,-39.39"/>
</g>
<!-- W&#45;&gt;X -->
<g id="edge12" class="edge">
<title>W&#45;&gt;X</title>
<path fill="none" stroke="#fd971f" d="M88.19,-11.88C99.49,-14.55 121.1,-15.01 135.8,-13.25"/>
<polygon fill="#fd971f" stroke="#fd971f" points="136.6,-16.66 145.78,-11.36 135.3,-9.78 136.6,-16.66"/>
</g>
<!-- W&#45;&gt;Y -->
<g id="edge13" class="edge">
<title>W&#45;&gt;Y</title>
<path fill="none" stroke="#fd971f" d="M84.34,-15.01C94.11,-25.95 119.77,-44.71 136.32,-53.48"/>
<polygon fill="#fd971f" stroke="#fd971f" points="135.06,-56.75 145.62,-57.62 137.91,-50.35 135.06,-56.75"/>
</g>
<!-- W&#45;&gt;Z -->
<g id="edge14" class="edge">
<title>W&#45;&gt;Z</title>
<path fill="none" stroke="#fd971f" d="M75.62,-15.34C74.06,-21.93 73.62,-31.59 74.28,-40.01"/>
<polygon fill="#fd971f" stroke="#fd971f" points="70.83,-40.64 75.78,-50.01 77.76,-39.6 70.83,-40.64"/>
</g>
<!-- W&#45;&gt;O -->
<g id="edge16" class="edge">
<title>W&#45;&gt;O</title>
<path fill="none" stroke="#fd971f" d="M73,-8.93C40.89,-14.95 31.03,-17.07 20.62,-22.99"/>
<polygon fill="#fd971f" stroke="#fd971f" points="18.72,-20.05 12.17,-28.38 22.48,-25.95 18.72,-20.05"/>
</g>
</g>
</svg>
